<svg xmlns="http://www.w3.org/2000/svg" xmlns:xlink="http://www.w3.org/1999/xlink" viewBox="0 0 500 500"><defs><style>.cls-1{fill:url(#radial-gradient);}.cls-2{fill:url(#linear-gradient);}.cls-3{fill:url(#linear-gradient-2);}.cls-4{fill:url(#linear-gradient-3);}.cls-5{fill:url(#linear-gradient-4);}.cls-6{fill:url(#linear-gradient-5);}.cls-7{fill:url(#linear-gradient-6);}.cls-15,.cls-8{font-size:34.37px;font-family:BebasNeueBold;}.cls-8{fill:#009ad7;letter-spacing:0.28em;}.cls-9{letter-spacing:0.28em;}.cls-10{letter-spacing:0.25em;}.cls-11{letter-spacing:0.27em;}.cls-12{letter-spacing:0.28em;}.cls-13{letter-spacing:0.31em;}.cls-14{letter-spacing:0.25em;}.cls-15,.cls-17{fill:#0069ab;}.cls-15{letter-spacing:0.22em;}.cls-16{letter-spacing:0.28em;}.cls-17{font-size:7.83px;font-family:Lato-Bold, Lato;font-weight:700;letter-spacing:0.78em;}.cls-18{letter-spacing:0.83em;}</style><radialGradient id="radial-gradient" cx="250" cy="250" r="315.82" gradientUnits="userSpaceOnUse"><stop offset="0" stop-color="#00293b"/><stop offset="0.24" stop-color="#002433"/><stop offset="0.6" stop-color="#00151e"/><stop offset="1"/></radialGradient><linearGradient id="linear-gradient" x1="261.41" y1="220.11" x2="228.75" y2="246.99" gradientUnits="userSpaceOnUse"><stop offset="0" stop-color="#004c91"/><stop offset="0.07" stop-color="#005c9f"/><stop offset="0.29" stop-color="#0088c7"/><stop offset="0.49" stop-color="#00a8e4"/><stop offset="0.65" stop-color="#00bbf6"/><stop offset="0.76" stop-color="#00c2fc"/><stop offset="0.77" stop-color="#00c3fc"/><stop offset="0.86" stop-color="#00ddfe"/><stop offset="0.94" stop-color="#00edff"/><stop offset="1" stop-color="#00f2ff"/></linearGradient><linearGradient id="linear-gradient-2" x1="230.87" y1="189.74" x2="314.78" y2="189.74" xlink:href="#linear-gradient"/><linearGradient id="linear-gradient-3" x1="251.45" y1="208.02" x2="218.8" y2="234.89" xlink:href="#linear-gradient"/><linearGradient id="linear-gradient-4" x1="283.46" y1="242.21" x2="283.46" y2="144.14" xlink:href="#linear-gradient"/><linearGradient id="linear-gradient-5" x1="254.95" y1="188.13" x2="271.71" y2="173.1" gradientUnits="userSpaceOnUse"><stop offset="0" stop-color="#004c91"/><stop offset="0.07" stop-color="#005a9e" stop-opacity="0.89"/><stop offset="0.29" stop-color="#0080c0" stop-opacity="0.57"/><stop offset="0.49" stop-color="#009edb" stop-opacity="0.32"/><stop offset="0.69" stop-color="#00b3ef" stop-opacity="0.15"/><stop offset="0.86" stop-color="#00c0fb" stop-opacity="0.04"/><stop offset="1" stop-color="#00c5ff" stop-opacity="0"/></linearGradient><linearGradient id="linear-gradient-6" x1="235.58" y1="229.82" x2="235.58" y2="155.79" xlink:href="#linear-gradient"/></defs><title>LOGO#8</title><g id="Background"><rect class="cls-1" width="500" height="500"/></g><g id="Objects"><rect class="cls-2" x="238.34" y="220.37" width="31" height="11.93"/><polygon class="cls-3" points="244.17 232.31 272.83 174.17 301.48 232.31 314.78 232.31 272.83 147.18 230.87 232.31 244.17 232.31"/><path class="cls-4" d="M230.87,232.31h13.3l14.76-29.95a110.4,110.4,0,0,0-6.8-13.2Z" transform="translate(0 0)"/><path class="cls-5" d="M272.83,147.18l-20.7,42a110.4,110.4,0,0,1,6.8,13.2l13.9-28.19,28.65,58.14h13.3Z" transform="translate(0 0)"/><path class="cls-6" d="M252.13,189.16a110.4,110.4,0,0,1,6.8,13.2l13.39-27.16a71.65,71.65,0,0,0-5.78-15.27Z" transform="translate(0 0)"/><polygon class="cls-7" points="206.93 232.31 235.58 174.17 264.24 232.31 277.54 232.31 235.58 147.18 193.62 232.31 206.93 232.31"/><text class="cls-8" transform="translate(43.07 262.58)">P<tspan class="cls-9" x="27.91" y="0">R</tspan><tspan class="cls-10" x="56.13" y="0">O</tspan><tspan class="cls-11" x="88.48" y="0">Y</tspan><tspan class="cls-12" x="116.46" y="0">E</tspan><tspan class="cls-13" x="143" y="0">C</tspan><tspan class="cls-14" x="173.52" y="0">T</tspan><tspan class="cls-12" x="199.3" y="0">OS</tspan></text><text class="cls-15" transform="translate(300.72 261.89)">V<tspan class="cls-12" x="26.85" y="0">ALE</tspan><tspan class="cls-16" x="109.89" y="0">R</tspan><tspan class="cls-12" x="138.11" y="0">O</tspan></text><text class="cls-17" transform="translate(154.14 283.32)">A<tspan class="cls-18" x="11.66" y="0">WESOME SOLUTIONS</tspan></text></g></svg>